PathFileType	4	(X/Y/Z)	5_2_84_p0_0-269_filt_butterworth.trc
DataRate	CameraRate	NumFrames	NumMarkers	Units	OrigDataRate	OrigDataStartFrame	OrigNumFrames
60.0	60.0	6	27	m	60.0	67	269
Frame#	Time	RHip			RKnee			RAnkle			RBigToe			RSmallToe			RHeel			LHip			LKnee			LAnkle			LBigToe			LSmallToe			LHeel			Neck			Head			Nose			RShoulder			RElbow			RWrist			RThumb			RIndex			RPinky			LShoulder			LElbow			LWrist			LThumb			LIndex			LPinky			
		X1	Y1	Z1	X2	Y2	Z2	X3	Y3	Z3	X4	Y4	Z4	X5	Y5	Z5	X6	Y6	Z6	X7	Y7	Z7	X8	Y8	Z8	X9	Y9	Z9	X10	Y10	Z10	X11	Y11	Z11	X12	Y12	Z12	X13	Y13	Z13	X14	Y14	Z14	X15	Y15	Z15	X16	Y16	Z16	X17	Y17	Z17	X18	Y18	Z18	X19	Y19	Z19	X20	Y20	Z20	X21	Y21	Z21	X22	Y22	Z22	X23	Y23	Z23	X24	Y24	Z24	X25	Y25	Z25	X26	Y26	Z26	X27	Y27	Z27	
67	1.1166666666666667	0.3679750735521327	0.959821989358155	0.6224407914031029	0.40411838264238964	0.4915729157733023	0.6731956614302625	0.42744151114105733	0.06074261675903825	0.7291224897415687	0.3831016910113541	0.05451701041614522	0.5755052898656908	0.4480226589042192	0.06469998709992918	0.5814063486278954	0.417324590324158	-0.005283811824520666	0.8048730990411211	0.17175807002056703	0.9213626417534708	0.5937873420742258	0.211994819686775	0.45420741770075895	0.6744493295473107	0.23466366076418316	0.007518817129896077	0.7967422066647465	0.2135171462786114	0.02923717412423471	0.5632158866076732	0.16696489779483492	0.02390601213141906	0.6315936893781915	0.2425457121791749	-0.04694033972797783	0.8466340399278067	0.20541306931320036	1.4161616894613298	0.5236213719758401	0.18134560724760146	1.6650789205248369	0.46402946479815016	0.2260413026797733	1.5230847387473454	0.35768239445028055	0.3750826157489596	1.3580953858817457	0.55265117922221	0.44070175544975054	1.1091188304505668	0.6324562699411989	0.47845994494468036	0.8743434361891947	0.6360196046284499	0.4637386918503699	0.7721664503635606	0.5616408513050456	0.4769456043087439	0.7377687009780848	0.6059697964029712	0.493371100041563	0.7355597713544796	0.6492337941186237	0.0827014259322823	1.3226745502764714	0.4787780002523928	0.06952091493678234	1.0581442526871874	0.5477695798326703	0.128596219006294	0.8413666712861032	0.48565829855548026	0.2218676654761116	0.7605848935608911	0.48464864089470183	0.20796181385203605	0.7287079188729303	0.4848055181870372	0.13323724979175053	0.720633622236752	0.49810412098196394	
68	1.1333333333333333	0.36753286037633875	0.9591559238174597	0.6227662576970273	0.4039470450402342	0.4911995864247561	0.6731679691339473	0.4272680589002808	0.061153377499778075	0.7282013547009416	0.3831483074295722	0.05454195774383544	0.575763344399948	0.4478811452262369	0.06399097709615326	0.5810731097199566	0.41743967941880444	-0.0047851795915017925	0.8038935208830951	0.1719189846631179	0.9209482229297873	0.5934104602386658	0.21097860549191036	0.45422178229630444	0.6743633963823082	0.23451266094996823	0.007721349236757859	0.7965448638419904	0.21262132667674172	0.02659694538225893	0.5668334033735958	0.16728387614148627	0.023370851752256158	0.6335458481570709	0.24242126162740507	-0.046148709049831496	0.8456948985638267	0.20546988023674873	1.4162012949048546	0.5236519827530124	0.18098086364517946	1.665385579072754	0.46297971991321063	0.22577107557394915	1.5233335463422573	0.35655870520542354	0.3748131097905632	1.358116717565957	0.5523841463433967	0.4405320306039533	1.1092069305700123	0.632808322650597	0.47856472900223995	0.8740643276250796	0.636216774567024	0.4630820458505693	0.7733805360501649	0.5586804589142268	0.4762886710762689	0.7385235897452741	0.6023841811330887	0.4933725310580362	0.7357607660918328	0.6491492811389062	0.08255143724145254	1.3226602919237975	0.4793567105330427	0.0694880931494484	1.0589978656648062	0.5471245226443604	0.1277253376395649	0.842762004003425	0.48481593123625544	0.2201169244489069	0.7616472274841408	0.4856851243452272	0.2070448444535004	0.7294110937653466	0.48452169696725056	0.13306086104564108	0.7214947329879333	0.4976052497824565	
69	1.15	0.36728105832529223	0.9585276273721873	0.6227545828052874	0.4037646605558663	0.4907760502528975	0.6731567159515389	0.4271242675395492	0.06151891112984814	0.7274168209295968	0.38312339878562424	0.05475244335317218	0.5756063334947872	0.44724034448147887	0.06320248950897722	0.5818171009606992	0.41750775835627435	-0.004145799367000588	0.8026079246370388	0.17229631606680332	0.9205824266644952	0.5927535679936735	0.2099263082673909	0.45445379428620297	0.673610732920928	0.23429307732372426	0.007879937859639426	0.7962147278219605	0.21204063165263695	0.025270794083254007	0.5684029627667726	0.16749797935258304	0.02415713784686621	0.633557899012972	0.24223405448535074	-0.045473462340929624	0.844945222373184	0.20559706744472553	1.4162502895155407	0.5236821985347898	0.1811572494040064	1.665906314662934	0.4630048187142498	0.22572243477793585	1.5242188228347575	0.35660889480602254	0.37512396022702865	1.3579367989791522	0.5521254095335448	0.44040164618300426	1.1091829972211924	0.633173886048184	0.4785754102019747	0.874102278031487	0.6362714548641627	0.46280536167082054	0.7746180667438929	0.5565740890352819	0.4753728271811403	0.7397504474642409	0.5974438893883756	0.4933776836146764	0.7358369930644217	0.6491331191409666	0.0823965140932005	1.3226690796707417	0.4795743910814915	0.0699104174817509	1.0595632463356344	0.546281020194979	0.12669718441429	0.8448383600849894	0.4839625582592797	0.2180650860550149	0.7628689583164074	0.48747718550576374	0.2059918213657541	0.730348227934084	0.48330750600596806	0.13283692757997673	0.7224264931264981	0.49692022743631636	
70	1.1666666666666667	0.36722355797142237	0.9579635825513362	0.622411842505527	0.4035612622090692	0.49028579345479845	0.673176090483896	0.42701202906142127	0.06180088542863601	0.7268084465394965	0.3829752994870744	0.055274228271909004	0.5747390489349865	0.4461662302428754	0.06243153484210667	0.5831285596510296	0.4174528411202317	-0.0035068523667778836	0.8012799193421184	0.17280038885144008	0.9202156237062538	0.5919904280794701	0.2088862989114476	0.4548474283843943	0.6723795680983196	0.23398652535192113	0.00789356678441172	0.7958004589668215	0.2119484018937422	0.02579784959558777	0.5671028150047034	0.16753361118369803	0.025910249825231844	0.6316290091462383	0.24199355363648073	-0.044975914415538235	0.8444852738438698	0.20589840278385071	1.4163091982383618	0.5237338440293169	0.1820762895554084	1.6664816114180339	0.4639200699398678	0.22595037981266436	1.525662361521803	0.3574836472890639	0.3761383586295716	1.357466482591304	0.5513800561690567	0.4405315327415422	1.1089502901107815	0.6330586457404093	0.4785562336144037	0.8743281255387206	0.636240153990171	0.46267410888862526	0.7758541462187171	0.5544022615746577	0.4742085237091279	0.7412996504685706	0.5913526450700975	0.4933871750588229	0.73555672992399	0.649236295135129	0.08260020622928674	1.3227565285166345	0.4790758248166762	0.07078356395220672	1.0599234024160709	0.5447117106261444	0.12560087281076504	0.8474185290724705	0.4830920956323485	0.21596504735570876	0.7641473398855159	0.4897567136360393	0.20480190629102685	0.7315555405948859	0.48090993592925874	0.1325921745162949	0.7235368401357833	0.4961635379102777	
71	1.1833333333333331	0.36735356778610295	0.9574403108465027	0.6217823636219095	0.40333260700223467	0.4897441101697191	0.6732225747293895	0.4269371033798103	0.061973469845044565	0.7264198490747358	0.3826963983353593	0.05610797911399831	0.5731460772423791	0.4448158891776419	0.061858488480811075	0.5843218921374236	0.41727342927387456	-0.002942955703062626	0.8000546316228452	0.1733302976679625	0.9198474835731266	0.5911542934457005	0.2079065680550645	0.4553615678474772	0.6708750544678672	0.23359259812392827	0.007794340815652695	0.7953421062417164	0.21242606550411025	0.028298120753650277	0.5628087550299238	0.16735909804557242	0.028168208398497874	0.6284267818614331	0.2417032798092337	-0.04467272726383187	0.844371756864506	0.20648204932139097	1.416365632622733	0.5238411738112461	0.18378914863599477	1.6669535032074452	0.46516412968125187	0.22662457850757678	1.5272857338082713	0.35878278875805125	0.37798418788260435	1.3566762154854142	0.5504073505825298	0.4410186558687651	1.1085761872572446	0.6320709545959771	0.47854973403523066	0.8745484580283054	0.6362080762068687	0.46245334994630594	0.7769114060544461	0.5517131469653097	0.4729001051961551	0.7428293890806517	0.5846803380478048	0.49339961286874173	0.7347662499947246	0.6494770621273418	0.08344193639188299	1.322949958546628	0.47786950894194835	0.07196675030476002	1.0601688304582206	0.5424022248107223	0.12462903281334202	0.8499611778586125	0.48242917494989446	0.21403302445320135	0.7652959337578268	0.49215261459598403	0.20347651121069513	0.732886941315604	0.4775808395738722	0.13235452371256157	0.7248525752179011	0.4954393040733763	
72	1.2	0.367661639080832	0.9569371261056714	0.6209133037742447	0.4030747655189522	0.48921095258657615	0.6732680590647409	0.42690685080997204	0.062019131470226044	0.726292544664393	0.38231787800760975	0.05714814985555586	0.5710445397306454	0.4433599586583029	0.06163301951982727	0.5850203719529479	0.41703270816806187	-0.00246945490230778	0.7989692141817993	0.17383794019690155	0.9195516982378493	0.5901456700279201	0.20702117249855098	0.4560038264608198	0.669159555094621	0.2331357489465518	0.00773361043559994	0.7948510170418507	0.21340753819074534	0.03235487229232459	0.5561775160236776	0.16703345950229337	0.03051446191480424	0.6248735747094639	0.24137027985307521	-0.04451299718504392	0.8445487716220206	0.20742872468759338	1.416394077449933	0.524043712779471	0.1863161531225311	1.6672904214111255	0.466038347273092	0.2279254863338066	1.5285581143414897	0.36021536100647367	0.38073075511838117	1.3556369271343034	0.5498163815377991	0.44182012429190637	1.1081700507624452	0.630193101061911	0.4785539413971658	0.8745600342608181	0.6362342186708195	0.46200205792627025	0.7774975044008693	0.5489349977935012	0.4716323418698038	0.7439880416242086	0.5783598850786494	0.4934148619868921	0.7334599116621713	0.6498470411983248	0.08494944728353018	1.3232205768967222	0.47643259006419103	0.07326938401050763	1.0603854170937708	0.5397484139378391	0.12397139359551454	0.8518890749259327	0.4821599243295724	0.2124459339917547	0.766178692178164	0.49418917629951	0.20192153470480156	0.7340573655480774	0.4739536416954561	0.13214734651348112	0.7262423713260334	0.4948212958562641	
